<?xml version="1.0" standalone="no"?>
<!DOCTYPE svg PUBLIC "-//W3C//DTD SVG 20010904//EN"
 "http://www.w3.org/TR/2001/REC-SVG-20010904/DTD/svg10.dtd">
<svg version="1.0" xmlns="http://www.w3.org/2000/svg"
 width="1024.000000pt" height="1024.000000pt" viewBox="0 0 1024.000000 1024.000000"
 preserveAspectRatio="xMidYMid meet">

<g transform="translate(0.000000,1024.000000) scale(0.100000,-0.100000)"
fill="#000000" stroke="none">
<path d="M5031 8845 c-83 -24 -140 -58 -341 -211 -102 -77 -396 -299 -655
-494 -258 -194 -480 -362 -492 -372 -21 -20 -22 -19 -441 122 -407 137 -420
141 -463 130 -95 -24 -104 -43 -128 -285 -24 -237 -40 -446 -49 -645 l-7 -145
-305 -232 c-168 -128 -407 -311 -533 -405 -194 -147 -231 -179 -250 -218 l-22
-45 -3 -2085 c-2 -1538 0 -2095 9 -2125 12 -45 41 -80 81 -101 23 -12 564 -14
3695 -14 3551 0 3669 1 3703 19 19 10 45 33 58 51 l22 33 0 2116 0 2116 -23
39 c-16 28 -74 79 -202 175 -717 541 -881 665 -887 675 -4 6 -8 47 -8 92 0
106 -16 339 -44 651 -25 273 -30 289 -87 319 -49 25 -105 20 -219 -21 -58 -20
-236 -82 -396 -137 l-292 -100 -673 504 c-371 278 -693 517 -715 532 -100 65
-231 89 -333 61z m178 -294 c21 -11 58 -35 82 -53 24 -19 279 -211 567 -427
288 -216 522 -395 520 -396 -2 -2 -73 -17 -158 -34 -314 -62 -600 -90 -1000
-98 -335 -6 -559 4 -843 37 -180 21 -499 80 -495 91 2 4 91 74 198 155 383
288 776 585 860 649 46 35 98 71 115 80 42 20 109 19 154 -4z m-2212 -921
c759 -258 1409 -370 2143 -370 494 0 952 54 1445 170 189 45 584 167 775 239
57 22 106 39 107 37 7 -7 33 -288 43 -456 42 -764 -37 -1428 -247 -2069 l-57
-174 -107 -86 c-58 -47 -220 -176 -360 -286 -139 -110 -384 -304 -544 -430
-159 -127 -344 -273 -410 -325 -65 -52 -180 -144 -255 -203 -243 -194 -378
-232 -570 -160 -77 28 -85 34 -666 498 -248 198 -534 425 -635 505 -101 79
-279 219 -394 311 l-211 167 -67 209 c-83 260 -108 353 -151 573 -35 177 -66
398 -88 635 -19 199 -16 806 5 1050 21 240 23 248 47 235 10 -6 99 -37 197
-70z m-493 -1500 c26 -226 64 -439 122 -677 19 -79 34 -145 34 -148 0 -3 -60
41 -132 98 -73 57 -261 201 -418 321 -157 120 -311 238 -344 263 -49 37 -56
47 -45 58 8 7 178 135 379 284 l365 272 8 -128 c4 -70 18 -225 31 -343z m5735
131 c166 -123 298 -227 294 -231 -4 -4 -78 -61 -163 -127 -85 -67 -294 -231
-465 -366 -170 -135 -311 -244 -312 -243 -1 0 10 41 23 91 30 112 80 354 104
505 29 178 70 577 70 682 l0 28 74 -57 c40 -32 209 -159 375 -282z m-6439
-643 c80 -63 422 -330 760 -593 338 -263 644 -501 680 -529 36 -29 137 -108
225 -177 88 -69 223 -174 299 -234 l139 -109 -28 -21 c-27 -19 -159 -126 -515
-415 -85 -69 -263 -214 -395 -321 -132 -107 -325 -265 -430 -350 -104 -85
-251 -204 -325 -264 -74 -60 -235 -193 -358 -295 -123 -102 -227 -186 -232
-188 -11 -4 -14 3620 -3 3631 3 4 13 1 22 -7 9 -7 81 -65 161 -128z m6840
-1691 l0 -1808 -29 23 c-16 13 -156 129 -312 258 -156 129 -353 291 -439 360
-85 69 -238 193 -339 275 -312 254 -504 409 -942 761 l-225 181 165 129 c166
128 631 493 1241 974 386 304 553 434 716 558 67 51 127 99 134 107 11 13 15
13 21 3 5 -7 9 -827 9 -1821z m-4248 -340 c289 -232 321 -255 421 -302 111
-53 185 -69 317 -69 89 0 133 5 194 22 138 40 213 87 519 333 158 127 292 229
297 227 8 -3 370 -295 1154 -934 88 -71 232 -188 320 -259 89 -72 280 -227
426 -346 146 -118 277 -223 292 -234 15 -11 28 -23 28 -27 0 -5 -1455 -8
-3232 -8 l-3233 0 25 24 c14 13 131 109 260 213 129 104 309 249 400 323 91
74 246 199 345 279 99 79 216 174 260 211 44 37 233 190 420 342 187 151 378
307 425 347 47 39 90 69 97 66 6 -2 126 -96 265 -208z"/>
<path d="M3798 6535 c-147 -28 -293 -96 -411 -193 -38 -31 -80 -71 -94 -89
l-26 -33 28 -41 c64 -91 217 -210 350 -270 196 -89 367 -106 656 -69 158 21
189 23 260 12 110 -16 123 -8 116 63 -27 265 -273 534 -553 605 -104 27 -232
33 -326 15z"/>
<path d="M6201 6536 c-302 -58 -518 -242 -606 -519 -30 -94 -33 -152 -7 -166
10 -5 49 -5 103 2 74 9 108 8 240 -11 396 -57 675 5 907 202 66 56 152 151
152 168 0 15 -108 119 -176 169 -180 133 -415 192 -613 155z"/>
<path d="M4010 5132 c-38 -20 -70 -72 -70 -113 0 -43 53 -111 147 -191 115
-96 156 -124 273 -186 182 -96 360 -151 575 -178 432 -54 863 65 1191 330 186
149 225 236 145 317 -59 59 -122 49 -221 -37 -265 -229 -579 -348 -920 -346
-232 1 -430 47 -633 148 -105 52 -155 85 -262 173 -126 103 -161 116 -225 83z"/>
</g>
</svg>
